<svg xmlns="http://www.w3.org/2000/svg" height="24" viewBox="0 0 24 24" width="24">
  <path d="M 0 0 h 24 v 24 H 0 z" fill="none"/>
  <circle fill="#4169e1" cx="4.5" cy="9.5" r="2.5"/>
  <circle fill="#4169e1" cx="9" cy="5.5" r="2.5"/>
  <circle fill="#4169e1" cx="15" cy="5.5" r="2.5"/>
  <circle fill="#4169e1" cx="19.5" cy="9.5" r="2.5"/>
  <path fill="#4169e1" d="M 17.3 14.9 c -0.9 -1 -1.6 -1.9 -2.5 -2.9 c -0.5 -0.5 -1.1 -1.1 -1.8 -1.3 c -0.1 0 -0.2 -0.1 -0.3 -0.1 c -0.3 0 -0.5 0 -0.8 0 s -0.5 0 -0.8 0.1 c -0.1 0 -0.2 0.1 -0.3 0.1 c -0.7 0.2 -1.3 0.8 -1.8 1.3 c -0.9 1 -1.6 1.9 -2.5 2.9 c -1.3 1.3 -2.9 2.8 -2.6 4.8 c 0.3 1 1 2 2.3 2.3 c 0.7 0.1 3.1 -0.4 5.5 -0.4 h 0.2 c 2.5 0 4.8 0.6 5.5 0.4 c 1.3 -0.3 2 -1.3 2.3 -2.3 c 0.3 -2 -1.3 -3.5 -2.6 -4.8 z"/>
</svg>
